<?xml version="1.0" encoding="UTF-8"?>
<!DOCTYPE svg PUBLIC "-//W3C//DTD SVG 1.1//EN" "http://www.w3.org/Graphics/SVG/1.1/DTD/svg11.dtd">
<svg xmlns="http://www.w3.org/2000/svg" version="1.1" width="296px" height="300px" style="shape-rendering:geometricPrecision; text-rendering:geometricPrecision; image-rendering:optimizeQuality; fill-rule:evenodd; clip-rule:evenodd" xmlns:xlink="http://www.w3.org/1999/xlink">
<g><path style="opacity:1" fill="#fefffe" d="M 117.5,-0.5 C 127.167,-0.5 136.833,-0.5 146.5,-0.5C 162.497,3.16822 176.164,11.0015 187.5,23C 226.683,18.1725 255.516,33.0058 274,67.5C 281.522,85.4143 282.355,103.581 276.5,122C 286.184,132.869 292.518,145.369 295.5,159.5C 295.5,168.5 295.5,177.5 295.5,186.5C 288.25,219.305 268.25,239.638 235.5,247.5C 228.337,270.167 213.67,286.001 191.5,295C 186.714,296.522 182.048,298.022 177.5,299.5C 168.167,299.5 158.833,299.5 149.5,299.5C 133.077,296.119 119.077,288.285 107.5,276C 67.3073,280.825 38.1406,265.325 20,229.5C 16.2278,220.2 14.3945,210.533 14.5,200.5C 14.9082,192.072 15.7415,183.738 17,175.5C 8.47152,165.11 2.63818,153.443 -0.5,140.5C -0.5,130.833 -0.5,121.167 -0.5,111.5C 7.17456,79.1588 27.1746,59.1588 59.5,51.5C 69.0848,23.2464 88.4182,5.91307 117.5,-0.5 Z M 121.5,20.5 C 138.12,18.238 153.12,22.0713 166.5,32C 147.833,42.6667 129.167,53.3333 110.5,64C 107.217,65.5605 104.383,67.7272 102,70.5C 100.682,99.7473 100.016,129.081 100,158.5C 92.4183,154.293 84.9183,149.96 77.5,145.5C 76.3335,119.506 76.1668,93.5064 77,67.5C 81.8191,42.1847 96.6524,26.518 121.5,20.5 Z M 196.5,43.5 C 226.454,42.3229 246.62,55.6562 257,83.5C 258.119,88.6159 258.952,93.7826 259.5,99C 259.379,101.653 258.712,104.153 257.5,106.5C 237.833,95 218.167,83.5 198.5,72C 193.972,69.8102 189.639,70.1435 185.5,73C 162.415,86.6262 139.249,100.126 116,113.5C 115.168,104.149 115.335,94.8155 116.5,85.5C 136.833,73.6667 157.167,61.8333 177.5,50C 183.708,47.0982 190.041,44.9316 196.5,43.5 Z M 53.5,74.5 C 55.326,98.813 56.1593,123.48 56,148.5C 57.5,151.333 59.6667,153.5 62.5,155C 85.6637,168.081 108.664,181.414 131.5,195C 124.167,199.333 116.833,203.667 109.5,208C 108.5,208.667 107.5,208.667 106.5,208C 84.6692,195.586 63.0025,182.919 41.5,170C 21.4189,152.416 15.5856,130.916 24,105.5C 30.3001,91.7023 40.1335,81.3689 53.5,74.5 Z M 185.5,90.5 C 208.556,102.531 231.222,115.364 253.5,129C 273.579,146.579 279.412,168.079 271,193.5C 264.641,207.859 254.308,218.192 240,224.5C 239.667,199.833 239.333,175.167 239,150.5C 237.5,147.667 235.333,145.5 232.5,144C 209.167,130.667 185.833,117.333 162.5,104C 170.559,99.9779 178.225,95.4779 185.5,90.5 Z M 145.5,113.5 C 157.238,118.288 168.405,124.288 179,131.5C 179.667,143.5 179.667,155.5 179,167.5C 168.544,173.643 158.044,179.643 147.5,185.5C 136.637,180.138 126.137,174.138 116,167.5C 115.333,155.5 115.333,143.5 116,131.5C 126.005,125.637 135.838,119.637 145.5,113.5 Z M 194.5,140.5 C 202.302,144.568 209.968,148.902 217.5,153.5C 218.666,179.16 218.833,204.827 218,230.5C 210.271,264.954 188.771,280.788 153.5,278C 144.309,276.237 135.975,272.57 128.5,267C 148.833,255.333 169.167,243.667 189.5,232C 191.378,230.457 192.878,228.624 194,226.5C 194.5,197.835 194.667,169.169 194.5,140.5 Z M 178.5,185.5 C 179.822,194.675 179.822,204.008 178.5,213.5C 158.167,225.333 137.833,237.167 117.5,249C 87.7975,261.618 63.2975,255.118 44,229.5C 36.8438,217.889 34.6771,205.556 37.5,192.5C 58.6572,205.161 80.1572,217.161 102,228.5C 128.121,215.199 153.621,200.866 178.5,185.5 Z"/></g>
</svg>
